<svg width="12" height="12" viewBox="0 0 12 12" fill="none" xmlns="http://www.w3.org/2000/svg">
<path d="M3.86368 5.08782C3.97301 5.79842 4.52211 6.70281 5.42402 7.02084C5.79423 7.15004 6.19922 7.15253 6.56943 7.01836C7.45643 6.69784 8.02293 5.79593 8.13473 5.08782C8.254 5.07788 8.41053 4.91141 8.57948 4.31262C8.81055 3.49519 8.56457 3.37344 8.35586 3.39332C8.39562 3.28151 8.42543 3.16722 8.44531 3.0579C8.79813 0.938529 7.75459 0.866475 7.75459 0.866475C7.75459 0.866475 7.58067 0.533538 7.12598 0.282593C6.82037 0.101217 6.39551 -0.0379213 5.83647 0.0092862C5.65509 0.01674 5.48365 0.0540091 5.32215 0.106186C5.11593 0.175755 4.9271 0.277624 4.75566 0.396885C4.54695 0.528569 4.34818 0.692553 4.17426 0.878898C3.89847 1.16214 3.65249 1.52738 3.54565 1.98206C3.45621 2.32245 3.47609 2.67775 3.55062 3.06038C3.5705 3.17219 3.60032 3.284 3.64007 3.3958C3.43136 3.37593 3.18539 3.49767 3.41645 4.31511C3.58789 4.91141 3.74442 5.07788 3.86368 5.08782Z" fill="#00B3E4"/>
<path d="M10.0975 7.86808C8.8279 7.54509 7.79679 6.81958 7.79679 6.81958L6.99178 9.3663L6.84022 9.84583L6.83773 9.83838L6.70605 10.2459L6.28118 9.04082C7.32472 7.58484 6.06999 7.59975 6.00042 7.60223C5.93085 7.59975 4.67613 7.58484 5.71966 9.04082L5.29479 10.2459L5.16311 9.83838L5.16063 9.84583L5.00907 9.3663L4.20157 6.81958C4.20157 6.81958 3.17046 7.54509 1.90082 7.86808C0.954189 8.10909 0.909466 9.20232 0.946735 9.74148C0.946735 9.74148 1.0014 10.4744 1.05606 10.7974C1.05606 10.7974 2.9046 11.9975 6.00042 12C9.09624 12 10.9448 10.7974 10.9448 10.7974C10.9994 10.4744 11.0541 9.74148 11.0541 9.74148C11.0889 9.20232 11.0442 8.10909 10.0975 7.86808Z" fill="#00B3E4"/>
</svg>
