<svg width="13" height="14" viewBox="0 0 13 14" fill="none" xmlns="http://www.w3.org/2000/svg">
<path d="M11.6545 8.27247C12.5235 4.36747 9.1025 0.819966 5.085 1.50097C2.904 0.147466 0 1.67697 0 4.27197C0 4.87547 0.1665 5.44047 0.456 5.92747C-0.3515 9.84147 3.0975 13.338 7.1115 12.6105C9.949 14.111 13.0845 11.1185 11.6545 8.27247ZM7.8355 10.6275C6.7815 11.061 5.047 11.0635 3.9975 10.514C2.501 9.71597 2.235 7.91947 3.526 7.91947C4.499 7.91947 4.191 9.05397 5.1735 9.51647C5.6245 9.72497 6.594 9.74647 7.1575 9.36647C7.714 8.99397 7.663 8.40797 7.3605 8.12797C6.559 7.38797 4.2655 7.68197 3.217 6.38647C2.7615 5.82447 2.6755 4.83297 3.2355 4.11397C4.2115 2.85797 7.0755 2.78147 8.307 3.72997C9.444 4.60997 9.137 5.77797 8.2195 5.77797C7.116 5.77797 7.696 4.33397 5.9145 4.33397C4.623 4.33397 4.115 5.25247 5.0245 5.69947C6.2575 6.31197 9.3995 6.10747 9.3995 8.50097C9.397 9.49697 8.7865 10.2395 7.8355 10.6275Z" fill="#00B3E4"/>
</svg>
