<svg width="12" height="13" viewBox="0 0 12 13" fill="none" xmlns="http://www.w3.org/2000/svg">
<path d="M9.30391 0.307876C7.11168 -0.102625 4.88844 -0.102625 2.69573 0.307876C1.73669 0.518132 0.530137 1.65619 0.294251 2.57159C-0.0980837 4.3428 -0.0980837 6.13833 0.294251 7.90954C0.530137 8.82494 1.73669 9.96299 2.69573 10.1733C2.69597 10.1733 2.69621 10.1733 2.69645 10.1734C2.73918 10.1816 2.77032 10.2181 2.77032 10.2609V12.8556C2.77032 12.9853 2.93113 13.0492 3.02267 12.9553L4.27476 11.6904C4.27476 11.6904 5.2725 10.6822 5.45191 10.5009C5.46944 10.4832 5.49366 10.4736 5.51875 10.4743C6.78289 10.5088 8.04839 10.4083 9.30391 10.1733C10.2629 9.96304 11.47 8.82499 11.7054 7.90958C12.0982 6.13837 12.0982 4.34285 11.7054 2.57164C11.4699 1.65619 10.2634 0.518132 9.30391 0.307876ZM9.33733 8.04165C9.14552 8.44252 8.86643 8.77602 8.46383 8.9889C8.35024 9.04897 8.21448 9.06838 8.08627 9.10723C7.93883 9.06318 7.79831 9.03357 7.66782 8.98027C6.31567 8.42807 5.07124 7.71568 4.08551 6.62363C3.52496 6.00264 3.08617 5.30154 2.71534 4.55959C2.53947 4.20773 2.39126 3.84209 2.24018 3.47884C2.10238 3.14758 2.30533 2.80535 2.51898 2.55576C2.71946 2.32152 2.97743 2.14226 3.25682 2.01014C3.47488 1.90702 3.68998 1.96647 3.84924 2.14841C4.19353 2.54175 4.50977 2.9552 4.76585 3.41114C4.92332 3.69158 4.88011 4.03438 4.59473 4.22523C4.52537 4.27162 4.46216 4.32607 4.39754 4.37846C4.34087 4.42438 4.28754 4.47077 4.2487 4.53294C4.17769 4.64665 4.1743 4.78086 4.22002 4.90453C4.57196 5.85655 5.16516 6.59684 6.13864 6.99556C6.29446 7.05935 6.45086 7.13364 6.63032 7.11304C6.93086 7.07847 7.02817 6.75398 7.23877 6.58444C7.44463 6.41876 7.70769 6.41657 7.92943 6.55469C8.15122 6.69286 8.36623 6.84118 8.57993 6.99108C8.78971 7.13821 8.99856 7.28215 9.19207 7.44988C9.37802 7.61112 9.4421 7.82272 9.33733 8.04165ZM7.59149 4.93934C7.50755 4.94082 7.54053 4.9392 7.57245 4.93829C7.43717 4.93362 7.36359 4.85524 7.34906 4.72779C7.33846 4.63468 7.33008 4.54033 7.3075 4.44974C7.26304 4.27133 7.1667 4.10599 7.01427 3.99666C6.94229 3.94503 6.86073 3.90736 6.77529 3.88314C6.66674 3.8523 6.55403 3.86078 6.44572 3.83466C6.32812 3.80634 6.26307 3.71256 6.28152 3.60395C6.29833 3.50511 6.39603 3.42797 6.50574 3.43579C7.19145 3.48451 7.68153 3.83346 7.75147 4.6281C7.75641 4.68417 7.76223 4.74338 7.74958 4.79702C7.72905 4.88422 7.66574 4.92961 7.60176 4.93786C7.60699 4.93796 7.60597 4.93838 7.59149 4.93934ZM7.1651 3.12193C6.95469 3.02052 6.72714 2.95749 6.49649 2.91992C6.39569 2.90352 6.29383 2.89356 6.19255 2.87968C6.06981 2.8629 6.00432 2.7859 6.01009 2.66685C6.01551 2.55529 6.09834 2.47504 6.22185 2.48191C6.62775 2.5046 7.01979 2.59095 7.38064 2.77904C8.11445 3.16155 8.53362 3.76533 8.65597 4.57156C8.66154 4.60808 8.67041 4.64426 8.67322 4.68093C8.68019 4.77142 8.6845 4.86205 8.69157 4.98139C8.68867 5.00313 8.68712 5.05424 8.67423 5.10239C8.6273 5.27718 8.35809 5.29906 8.29609 5.12266C8.27773 5.07031 8.27497 5.01076 8.27488 4.9544C8.27425 4.58567 8.19283 4.21731 8.00392 3.89649C7.80974 3.56685 7.51302 3.28966 7.1651 3.12193ZM9.43251 5.61359C9.29073 5.61526 9.22694 5.4985 9.21774 5.37334C9.19953 5.12561 9.18693 4.87679 9.15221 4.6311C8.96912 3.33424 7.91853 2.26131 6.60716 2.03107C6.40983 1.99641 6.2078 1.98731 6.00796 1.96666C5.88159 1.9536 5.71608 1.94607 5.68808 1.79145C5.66459 1.66181 5.77575 1.55859 5.90115 1.55197C5.93525 1.55015 5.96954 1.55168 6.00379 1.55182C7.70221 1.59869 6.10744 1.55545 6.00834 1.55206C7.77492 1.60274 9.22534 2.75748 9.5364 4.47711C9.58944 4.77037 9.60833 5.07021 9.63192 5.36786C9.6418 5.49301 9.56977 5.61197 9.43251 5.61359Z" fill="#00B3E4"/>
</svg>
